<?xml version="1.0" encoding="iso-8859-1"?>
<!-- Uploaded to: SVG Repo, www.svgrepo.com, Generator: SVG Repo Mixer Tools -->
<svg version="1.1" id="Layer_1" xmlns="http://www.w3.org/2000/svg" xmlns:xlink="http://www.w3.org/1999/xlink" 
	 viewBox="0 0 512 512" xml:space="preserve">
<circle style="fill:#FFEC97;" cx="255.996" cy="256" r="255.996"/>
<path style="fill:#FFDB2D;" d="M512,256.003c0-13.004-0.977-25.777-2.848-38.259L392.637,100.901h-52.523l-48.615-50.043h-70.997
	V100.9h-102.72v99.655l26.224,26.125h-24.643l-46.465,49.828l46.465,49.827l101.138,100.867v33.947l50.411,50.411
	C405.355,503.836,512,392.381,512,256.003z"/>
<rect x="220.502" y="50.858" style="fill:#C06100;" width="70.997" height="410.294"/>
<rect x="255.996" y="50.858" style="fill:#994B00;" width="35.502" height="410.294"/>
<polygon style="fill:#FF8800;" points="439.102,150.728 392.637,100.901 392.637,100.901 117.781,100.901 117.781,200.555 
	392.637,200.555 392.637,200.555 "/>
<polygon style="fill:#E67500;" points="392.637,200.555 439.102,150.728 392.637,100.901 255.996,100.901 255.996,200.555 "/>
<polygon style="fill:#FF8800;" points="72.898,276.508 119.363,326.336 119.363,326.336 394.219,326.336 394.219,226.681 
	119.363,226.681 119.363,226.681 "/>
<rect x="255.996" y="226.681" style="fill:#E67500;" width="138.217" height="99.65"/>
</svg>