<?xml version="1.0" encoding="iso-8859-1"?>
<!-- Uploaded to: SVG Repo, www.svgrepo.com, Generator: SVG Repo Mixer Tools -->
<svg version="1.1" id="Layer_1" xmlns="http://www.w3.org/2000/svg" xmlns:xlink="http://www.w3.org/1999/xlink" 
	 viewBox="0 0 512 512" xml:space="preserve">
<circle style="fill:#FFD15D;" cx="256" cy="256" r="256"/>
<path style="fill:#F9B54C;" d="M510.666,282.281L319.398,91.014L201.461,274.439l-4.546,180.672l56.861,56.861
	c0.743,0.007,1.481,0.028,2.226,0.028C388.511,512,497.507,411.319,510.666,282.281z"/>
<g>
	<rect x="196.922" y="280.255" style="fill:#F1543F;" width="10.343" height="174.856"/>
	<rect x="223.866" y="280.255" style="fill:#F1543F;" width="10.343" height="174.856"/>
	<rect x="250.828" y="280.255" style="fill:#F1543F;" width="10.343" height="174.856"/>
</g>
<g>
	<rect x="255.431" y="280.255" style="fill:#C1321F;" width="5.746" height="174.856"/>
	<rect x="277.79" y="280.255" style="fill:#C1321F;" width="10.343" height="174.856"/>
	<rect x="304.735" y="280.255" style="fill:#C1321F;" width="10.343" height="174.856"/>
	<rect x="192.595" y="94.33" style="fill:#C1321F;" width="126.793" height="190.199"/>
</g>
<rect x="255.431" y="94.33" style="fill:#A82116;" width="63.974" height="190.199"/>
<rect x="149.056" y="145.895" transform="matrix(-0.7071 -0.7071 0.7071 -0.7071 194.8196 459.5434)" style="fill:#F1543F;" width="87.056" height="87.056"/>
<rect x="275.898" y="145.885" transform="matrix(-0.7071 -0.7071 0.7071 -0.7071 411.3597 549.218)" style="fill:#D83E20;" width="87.056" height="87.056"/>
<g>
	<rect x="192.595" y="91.014" style="fill:#FD8469;" width="126.793" height="25.445"/>
	<rect x="192.595" y="263.516" style="fill:#FD8469;" width="126.793" height="25.445"/>
</g>
<g>
	<rect x="255.431" y="91.014" style="fill:#FC6F58;" width="63.974" height="25.445"/>
	<rect x="255.431" y="263.516" style="fill:#FC6F58;" width="63.974" height="25.445"/>
</g>
</svg>