<?xml version="1.0" encoding="utf-8"?>
<!-- Generator: Adobe Illustrator 27.5.0, SVG Export Plug-In . SVG Version: 6.00 Build 0)  -->
<svg version="1.1" xmlns="http://www.w3.org/2000/svg" xmlns:xlink="http://www.w3.org/1999/xlink" x="0px" y="0px"
	 viewBox="0 0 500 500" style="enable-background:new 0 0 500 500;" xml:space="preserve">
<g id="BACKGROUND">
	<rect style="fill:#FFFFFF;" width="500" height="500"/>
</g>
<g id="OBJECTS">
	<path style="fill:#F7EDE6;" d="M56.877,457.592H445.33c-0.684-75.698-2.052-151.394-2.052-227.095
		c0-33.253-2.129-52.123-2.129-94.304c0-41.899-17.221-78.857-65.272-85.194c-79.352-10.465-179.358-6.478-244.555-1.855
		c-47.098,3.34-72.913,34.846-75.029,89.381C53.175,218.85,55.218,373.182,56.877,457.592z"/>
	<g>
		<g>
			<path style="fill:none;stroke:#E6D4BE;stroke-width:1.5804;stroke-miterlimit:10;" d="M445.764,310.881
				c-9.446,2.269-13.803,23.672-15.67,50.273c-1.867,26.601-0.467,55.535-0.467,55.535"/>
			<path style="fill:none;stroke:#E6D4BE;stroke-width:1.5804;stroke-miterlimit:10;" d="M434.761,412.022
				c3.267-33.601,9.041-87.571,6.067-114.337c-1.867-16.801-14.564-24.005-22.916-15.036"/>
			<path style="fill:none;stroke:#E6D4BE;stroke-width:1.5804;stroke-miterlimit:10;" d="M442.379,254.104
				c-7.152-4.954-17.419,10.447-20.219,51.981c-2.8,41.535,5.134,101.27,5.134,101.27"/>
			<path style="fill:#E6D4BE;" d="M442.379,254.104c-12.547-3.137-21.017,11.92-10.665,23.213
				c10.352,11.293,27.918,22.585,27.918,22.585s7.215-15.057,8.156-30.741c0.941-15.684-7.289-22.082-16.312-21.33
				C443.948,248.458,442.379,254.104,442.379,254.104z"/>
			<path style="fill:#E6D4BE;" d="M401.914,326.566c10.665-13.175,12.861-11.293,23.213-19.135
				c10.352-7.842,10.979-15.371,6.274-21.331c-4.705-5.96-13.488-3.451-13.488-3.451s-0.627-5.96-10.038-5.96
				c-9.41,0-16.625,10.979-14.743,27.604S401.914,326.566,401.914,326.566z"/>
			<path style="fill:#E6D4BE;" d="M445.764,310.881c-7.205-2.823-30.263-2.823-21.976,17.566s22.575,25.551,28.594,37.588
				c3.336,6.673,3.093,15.133,3.093,15.133s11.426-6.428,22.353-29.508c9.23-19.494,5.63-41.861-9.727-47.366
				C449.727,297.707,445.764,310.881,445.764,310.881z"/>
		</g>
		<polygon style="fill:#E6D4BE;" points="454.059,457.868 414.156,457.868 408.639,388.056 459.577,388.056 		"/>
	</g>
	<g>
		<path style="fill:#E6D4BE;" d="M158.027,130.245c-16.291,0-29.498-13.207-29.498-29.498s13.207-29.498,29.498-29.498
			s29.498,13.207,29.498,29.498S174.319,130.245,158.027,130.245z"/>
		<circle style="fill:#F7EDE6;" cx="158.027" cy="100.747" r="3.141"/>
		<path style="fill:#F7EDE6;" d="M158.082,82.806L158.082,82.806c-0.785,0-1.421,0.636-1.421,1.421v17.458h2.841V84.226
			C159.503,83.442,158.867,82.806,158.082,82.806z"/>
		<path style="fill:#F7EDE6;" d="M176.815,87.417L158.141,98.84l1.451,2.369l18.67-11.43c0.608-0.372,0.834-1.145,0.522-1.787l0,0
			C178.426,87.258,177.513,86.991,176.815,87.417z"/>
	</g>
	<g>
		<rect x="258.581" y="113.32" style="fill:#FFFFFF;" width="60.516" height="9.685"/>
		<rect x="258.581" y="100.728" style="fill:#FFFFFF;" width="60.516" height="9.685"/>
		
			<rect x="327.78" y="95.618" transform="matrix(-0.1698 0.9855 -0.9855 -0.1698 509.8934 -230.4343)" style="fill:#E6D4BE;" width="48.462" height="7.89"/>
		
			<rect x="317.943" y="95.617" transform="matrix(-0.1698 0.9855 -0.9855 -0.1698 498.3864 -220.7402)" style="fill:#E6D4BE;" width="48.462" height="7.89"/>
		
			<rect x="308.106" y="95.618" transform="matrix(-0.1698 0.9855 -0.9855 -0.1698 486.8801 -211.0459)" style="fill:#E6D4BE;" width="48.462" height="7.89"/>
		<polygon style="fill:#E6D4BE;" points="357.664,124.112 357.664,89.409 359.129,89.409 360.733,124.112 		"/>
		<rect x="246.243" y="122.066" style="fill:#E6D4BE;" width="121.752" height="6.918"/>
	</g>
	<g>
		<polygon style="fill:#9C745B;" points="280.223,309.378 285.31,309.378 269.846,457.342 264.758,457.342 		"/>
		<g>
			<g>
				<g>
					<rect x="354.317" y="368.604" style="fill:#6C273E;" width="6.544" height="70.017"/>
					<path style="fill:#6C273E;" d="M358.11,414.958h-1.043c-2.617,0-4.739,2.122-4.739,4.739v21.287
						c0,1.244,1.009,2.252,2.253,2.252h6.015c1.244,0,2.252-1.008,2.252-2.252v-21.287
						C362.848,417.08,360.727,414.958,358.11,414.958z"/>
					<g>
						<path style="fill:#6C273E;" d="M357.588,440.862L357.588,440.862c-0.769,0-1.392,0.623-1.392,1.392v8.984
							c0,0.769,0.623,1.392,1.392,1.392l0,0c0.769,0,1.392-0.623,1.392-1.392v-8.984
							C358.98,441.485,358.357,440.862,357.588,440.862z"/>
					</g>
					<path style="fill:#6C273E;" d="M366.28,375.541h-17.382c-2.407,0-4.582-1.438-5.524-3.653l-2.327-5.471
						c-1.684-3.959,1.221-8.352,5.524-8.352h22.037c4.303,0,7.208,4.393,5.524,8.352l-2.327,5.471
						C370.861,374.103,368.687,375.541,366.28,375.541z"/>
					<path style="fill:#6C273E;" d="M390.275,454.008c0,2.599-2.107,4.706-4.706,4.706c-2.599,0-4.706-2.107-4.706-4.706
						c0-2.599,2.107-4.706,4.706-4.706C388.168,449.302,390.275,451.409,390.275,454.008z"/>
					<path style="fill:#6C273E;" d="M362.294,454.008c0,2.599-2.107,4.706-4.706,4.706c-2.599,0-4.706-2.107-4.706-4.706
						c0-2.599,2.107-4.706,4.706-4.706C360.187,449.302,362.294,451.409,362.294,454.008z"/>
					<path style="fill:#6C273E;" d="M324.902,454.008c0,2.599,2.107,4.706,4.706,4.706c2.599,0,4.706-2.107,4.706-4.706
						c0-2.599-2.107-4.706-4.706-4.706C327.008,449.302,324.902,451.409,324.902,454.008z"/>
					<g>
						<path style="fill:#6C273E;" d="M331.398,455.991l-2.78-1.257c5.109-11.299,16.196-18.316,28.935-18.316
							c0.002,0,0.003,0,0.005,0c12.735,0.001,23.817,7.02,28.922,18.316l-2.78,1.257c-4.605-10.19-14.622-16.522-26.143-16.524
							c-0.001,0-0.003,0-0.004,0C346.028,439.467,336.007,445.799,331.398,455.991z"/>
					</g>
				</g>
			</g>
			<g>
				<path style="fill:#6C273E;" d="M425.876,228.41c-5.168-9.906-22.612-10.983-22.612-10.983l-42.381,10.598
					c0,0-17.677,30.852-21.095,46.827c-2.592,12.116-33.001,58.101-45.26,78.913c-3.904,6.628-0.811,7.142,1.358,8.148
					c23.185,10.751,93.479,0,93.479,0c8.798,0,17.705-8.799,19.549-17.401c2.082-9.707,4.099-24.761,4.146-46.737
					C413.159,252.093,436.49,248.754,425.876,228.41z"/>
				<path style="fill:#5C2135;" d="M395.383,348.393c4.599-1.592,7.987-5.523,8.786-10.324c1.587-9.529,2.889-22.688,2.927-40.293
					c0.098-45.683,18.012-56.294,11.906-70.877c-6.962-16.627-52.711-9.862-67.8,0c-12.584,8.225-13.961,31.978-17.379,47.954
					c-2.883,13.474-6.731,62.167-7.866,77.082C349.642,353.436,373.182,356.076,395.383,348.393z"/>
			</g>
		</g>
		<path style="fill:#272C34;" d="M338.894,421.269l3.914,19.626c0,0-2.618,4.35-6.269,6.08c-3.221,1.526-4.887,2.663-8.28,2.851
			c-2.495,0.139-3.057,7.375-3.057,7.375h21.638l18.655-7.803c0,0-0.174-4.41-1.727-9.327c-1.553-4.918-6.332-22.332-6.332-22.332
			L338.894,421.269z"/>
		<g>
			<path style="fill:#272C34;" d="M283.529,421.483l-0.518,19.412c0,0-4.469,4.205-11.602,7.403
				c-4.586,2.056-14.954,8.903-9.381,8.903h23.831l20.965,0.097c0,0,0.259-7.603-1.294-12.521c-1.553-4.918-4.4-8.8-4.659-15.788
				c-0.259-6.988-0.518-10.871-0.518-10.871L283.529,421.483z"/>
			<path style="fill:#323945;" d="M358.938,324.672l-7.401-17.578h-24.979c0,0-16.19,5.551-34.23,10.639
				c-18.04,5.088-28.953,6.938-33.116,18.04c-4.163,11.102,2.775,33.305,7.864,48.57c5.088,15.265,14.802,43.482,14.802,43.482
				s11.838,3.238,19.239,0.463c0,0-3.202-57-6.153-71.698c0,0,24.656-0.463,34.832-1.388
				C339.972,354.277,355.237,332.999,358.938,324.672z"/>
		</g>
		<path style="fill:#323945;" d="M341.463,318.659c-5.088,2.313-31.612,14.935-36.543,19.428c-5.858,5.337-4.626,13.877-1.85,18.965
			c2.775,5.088,13.877,27.292,20.353,40.706c6.476,13.414,14.802,31.917,14.802,31.917s7.864,1.85,20.816-4.626
			c0,0-5.61-27.317-8.848-42.119c-3.238-14.802-8.073-28.833-8.073-28.833s23.86,1.567,34.962-0.746
			c11.102-2.313,15.727-5.088,15.265-20.816c-0.463-15.727-3.701-25.904-3.701-25.904l-45.332,0.463L341.463,318.659z"/>
		<path style="fill:none;stroke:#272C34;stroke-miterlimit:10;" d="M343.314,307.095l-1.85,11.564
			c-5.088,2.313-31.612,14.935-36.543,19.428c-5.858,5.337-4.626,13.877-1.85,18.965c2.775,5.088,13.877,27.292,20.353,40.706"/>
		<path style="fill:none;stroke:#272C34;stroke-miterlimit:10;" d="M337.681,345.793c0,0,6.151,11.02,9.995,28.19"/>
		<g>
			<g>
				<path style="fill:#E8B3A0;" d="M354.837,179.501c-0.513,2.315,0.999,19.697,3.023,23.35c0.855,1.543,13.204,5.357,13.204,5.357
					s-9.963,31.488-16.446,32.626c-6.482,1.138-25.943-28.328-25.943-28.328s9.104-3.57,9.634-4.669
					c1.441-2.991-0.593-21.579-0.593-21.579L354.837,179.501z"/>
				<path style="fill:#D49684;" d="M338.31,207.837c-0.103,0.214-0.537,0.523-1.159,0.88c2.793,0.258,5.746-0.01,8.953-1.045
					c5.193-1.677,8.13-5.102,10.453-9.234c-1.31-6.507-2.113-17.158-1.719-18.936l-17.121,6.758
					C337.717,186.258,339.751,204.846,338.31,207.837z"/>
				<path style="fill:#E7B2A1;" d="M353.291,199.358c-2.177,1.881-6.007,6.332-13.042,7.535c-2.69,0.46-6.653-0.496-8.214-1.932
					c-2.968-2.731-7.234-10.9-6.757-15.46c0.251-2.436-0.046-5.678,0.426-8.637c0.41-2.573,0.245-5.949,0.638-7.565
					c1.307-5.376,4.305-11.015,8.866-11.942c12.413-2.527,28.765,9.698,28.167,13.505c-0.565,3.588-2.695,9.718-3.644,14.39
					C359.015,192.77,356.968,196.181,353.291,199.358z"/>
				<path style="fill:#D49684;" d="M337.958,171.339l4.322,0.232l5.81-5.764l-1.03,6.635l2.076,0.356c0,0,0.557-3.601,3.237-6.702
					l-0.3,6.996c0,0,3.149,2.341,5.712,3.272s3.144,1.53,3.144,1.53l-3.735-13.876l-8.296-4.071l-10.731,0.951l-4.518,6.164
					L337.958,171.339z"/>
				<g>
					<path style="fill:#2A2D33;" d="M327.057,173.125c0.532-2.313,4.095-8.567,4.095-8.567l-1.609-0.887
						c-2.581-1.423-3.127,2.127-4.911,5.027l1.587,8.891C327.042,175.367,326.802,174.232,327.057,173.125z"/>
					<path style="fill:#2A2D33;" d="M355.431,168.286c1.186,2.99,3.085,2.937,5.137,5.048c2.052,2.112,0.709,14.762,0.709,14.762
						s3.342-2.878,5.087-7.197c0.478-1.182,2.402-4.02,3.017-7.286c1.262-6.698-0.181-8.682-2.274-10.218
						c-2.188-1.606-5.137-1.018-5.137-1.018L355.431,168.286z"/>
				</g>
				<path style="fill:#E7B2A1;" d="M360.469,183.696c0.925-0.862,3.359-2.594,4.373-1.357c1.014,1.237,0.391,7.452-1.974,10.047
					c-2.215,2.431-5.134,1.582-5.134,1.582l1.286-8.256L360.469,183.696z"/>
				<path style="fill:#2A2D33;" d="M359.094,170.263c0,0-1.38,6.11-0.677,8.044c1.293,3.558,0.341,10.777,0.341,10.777l2.984-6.329
					l2.46-5.372L359.094,170.263z"/>
				<path style="fill:#D49684;" d="M361.18,185.317c0.868-1.65,2.654-1.732,2.776-0.54c0.122,1.192-0.525,1.452-0.525,1.452
					s-0.968,0.056-1.627,1.051c-1.382,2.088-1.461,4.597-1.461,4.597S359.075,189.317,361.18,185.317z"/>
				<path style="fill:#2A2D33;" d="M351.003,164.678c1.687,1.936,0.494,7.525-0.375,8.445c0,0,7.576,2.882,10.329,1.644
					c2.482-1.115,3.377-4.624,3.377-4.624l-2.729-5.876l-6.971-2.066L351.003,164.678z"/>
				<path style="fill:#2A2D33;" d="M362.454,157.975c-0.773-1.264-5.048-5.539-14.895-5.579c-7.175-0.029-12.914,2.161-15.51,4.197
					c-4.54,3.56-6.211,7.597-7.418,12.104c0,0,3.028,1.191,3.033,1.187c0.138-0.135,2.735,1.192,10.293,1.454
					c1.469-2.263,4.834-4.809,4.834-4.809c-1.306,1.803-1.944,3.573-2.256,4.968c2.522,0.284,6.523,0.943,6.523,0.943
					c1.1-3.399,5.014-6.764,5.312-6.347l9.006,0.701l2.495-1.747C363.871,165.048,364.482,161.293,362.454,157.975z"/>
				<g>
					<path style="fill:#2A2D33;" d="M341.256,176.787c0,0,0.315-1.186,1.39-1.817c0,0,4.789,0.119,8.005,4.154
						c0,0-0.833-0.082-1.146-0.169C348.706,178.734,344.475,176.455,341.256,176.787z"/>
					<path style="fill:#2A2D33;" d="M335.236,176.206c0,0,0.361-1.284-0.191-2.256c0,0-2.445-0.885-7,1.126
						c0,0,0.137,0.592,0.982,0.505C329.873,175.493,333.28,174.583,335.236,176.206z"/>
					<path style="fill:#D49684;" d="M337.781,182.338c-0.668,0.728-1.286,1.495-1.895,2.268c-0.615,0.769-1.192,1.564-1.769,2.36
						l-0.423,0.603l-0.211,0.302c-0.069,0.129-0.138,0.261-0.199,0.393c-0.031,0.148-0.071,0.3-0.072,0.449
						c0.023,0.146,0.016,0.309,0.087,0.432c0.097,0.272,0.277,0.479,0.469,0.64c0.778,0.642,1.22,0.822,2.16,0.972
						c0,0,0.608-0.079,0.214-0.316c-0.398-0.22-1.755-0.679-2.038-0.994c-0.28-0.318-0.435-0.675-0.285-1.015
						c0.052-0.084,0.096-0.169,0.14-0.256l0.216-0.297l0.432-0.594c0.563-0.8,1.125-1.601,1.65-2.428
						C336.787,184.034,337.31,183.205,337.781,182.338z"/>
				</g>
				<path style="fill:#447C68;" d="M391.646,272.765c0.807-4.99-7.188-59.56-8.016-60.274c-1.528-1.318-12.241-4.701-18.742-6.673
					c-3.403,6.982-8.314,11.361-16.555,11.712c-5.137,0.219-12.087-2.327-15.255-6.885c-10.595,3.029-13.543,4.626-13.543,4.626
					s-3.567,10.977-2.265,13.136c1.302,2.169,2.132,30.945,1.777,45.855c-0.168,7.048-3.419,27.847-4.064,37.218
					c11.276,6.505,33.527,4.549,36.194,4.869c3.037,0.364,16.651,0.955,25.154,3.47c9.969,2.948,14.786,7.816,15.315,7.251
					C393.732,324.837,390.358,280.76,391.646,272.765z"/>
				<path style="fill:#FFFFFF;" d="M368.922,207.077c-3.438-0.959-5.363-1.697-5.363-1.697c-2.657,6.767-9.782,12.238-18.329,11.561
					c-9.311-0.738-10.694-7.191-10.694-7.191c-1.486,0.557-3.24,1.145-4.721,1.9c1.119,2.501,4.71,5.813,7.118,7.135
					c2.644,1.452,8.007,2.427,11.063,2.213C353.25,220.629,362.469,219.983,368.922,207.077z"/>
				<path style="fill:#2A2D33;" d="M344.734,182.975c-0.239,1.136-1.008,1.936-1.718,1.787c-0.71-0.149-1.092-1.191-0.854-2.328
					c0.239-1.136,1.008-1.937,1.718-1.787C344.591,180.796,344.973,181.838,344.734,182.975z"/>
				<path style="fill:#2A2D33;" d="M333.209,180.607c-0.239,1.136-1.008,1.937-1.718,1.787c-0.71-0.149-1.092-1.191-0.854-2.328
					c0.239-1.136,1.008-1.936,1.718-1.787C333.066,178.429,333.448,179.471,333.209,180.607z"/>
			</g>
			<g>
				<path style="fill:#E7B2A1;" d="M334.394,286.96c-2.013-0.475-7.353-0.165-10.499,0.157c-3.146,0.321-4.277,0.275-5.702,0.413
					c-1.426,0.138-1.806,1.094-0.639,1.699c1.167,0.605,2.749,1.469,7.126,0.964c4.377-0.505,10.226-0.597,10.226-0.597
					S335.47,287.214,334.394,286.96z"/>
				<path style="fill:#D38576;" d="M319.913,288.643c2.382-0.458,4.846-0.892,7.288-0.831c2.657,0.067,5.072,0.665,7.142,1.795
					c-1.567,0.037-6.102,0.174-9.664,0.585c-4.377,0.505-5.959-0.359-7.126-0.964c-0.173-0.09-0.302-0.189-0.409-0.29
					C318.017,288.919,318.901,288.838,319.913,288.643z"/>
				<g>
					<path style="fill:#E7B2A1;" d="M313.076,299.478c0,0-0.116-0.041-0.268-0.129L313.076,299.478z"/>
					<path style="fill:#E7B2A1;" d="M311.694,296.01c0.083-0.614,2.256-2.504,3.677-3.595c1.929-1.481,3.612-2.267,6.099-3.04
						c2.243-0.697,8.777-2.509,10.36-2.568c3.16-0.117,5.895,1.006,7.782,1.414c1.778,0.384,5.599,2.356,7.764,2.356
						c2.974,0,15.467-2.855,15.467-2.855l-1.579,10.471c0,0-5.231,0.786-6.981,0.997c-4.668,0.563-7.518,2.455-11.814,2.685
						c-4.296,0.23-5.984-1.534-7.825-1.688c-1.841-0.154-4.91,0.384-6.521,0.997c-1.611,0.614-4.035,2.129-5.245,2.129
						c-1.211,0-1.556-1.458-1.556-1.458s-1.75,0.46-2.928,1.074c-1.177,0.614-2.865-0.384-2.788-1.534c0,0-1.074,0.997-1.918,0.69
						c-0.844-0.307-1.227-1.227-0.614-2.608c0,0,2.664-2.452,3.918-3.428c1.254-0.975,3.448-2.238,3.978-2.545
						c0.53-0.307,3.707-1.059,3.707-1.059s-2.028,0.206-3.501,0.421c-0.933,0.136-1.339,0.357-2.039,0.796
						c-1.483,0.93-2.556,1.649-4.363,2.717C313.839,296.933,311.528,297.235,311.694,296.01z"/>
				</g>
			</g>
			<path style="fill:#447C68;" d="M353.206,288.956c2.766-0.692,7.358,7.198,7.484,12.427c0,0,29.737-5.878,42.186-10.374
				c12.448-4.495,14.177-8.299,12.794-14.869c-1.383-6.57-12.18-41.277-13.908-46.81c-1.729-5.533-4.418-11.282-11.334-14.74
				c-6.916-3.458-14.177-4.841-14.177-4.841s0.346,19.71,1.383,25.934c1.037,6.224,11.065,34.924,11.065,34.924L353.206,288.956z"/>
			
				<path style="fill:none;stroke:#396958;stroke-width:1.0761;stroke-linecap:round;stroke-linejoin:round;stroke-miterlimit:10;" d="
				M398.925,274.705c0,0-4.808-4.9-10.227-4.097"/>
			<path style="fill:#447C68;" d="M319.535,215.271c-4.821,2.426-7.858,5.502-10.686,8.475
				c-9.558,10.047-19.675,25.508-24.807,33.072c-6.651,9.802-11.552,16.453-11.552,20.654c0,4.201,3.151,13.653,3.151,13.653
				s4.551-4.551,9.802-5.251c5.251-0.7,12.788,2.596,12.788,2.596s-0.35-8.136,0-10.237c0.35-2.1,9.951-11.718,14.502-15.568
				c4.551-3.851,14.076-11.09,14.076-11.09L319.535,215.271z"/>
			<g>
				<polygon style="fill:#B7ACAC;" points="312.217,300.774 297.571,300.774 282.927,249.531 294.061,249.531 				"/>
				<polygon style="fill:#D1CBCB;" points="308.013,300.774 243.414,300.774 228.769,249.531 293.368,249.531 				"/>
				<rect x="242.83" y="299.612" style="fill:#D1CBCB;" width="65.057" height="3.822"/>
				<rect x="307.887" y="299.612" style="fill:#B7ACAC;" width="32.784" height="3.822"/>
			</g>
			<path style="fill:#2A2D33;" d="M333.725,193.268c2.154,1.134,8.731,0.34,10.772-1.134c0,0-2.239,3.744-6.123,3.515
				C334.16,195.401,333.725,193.268,333.725,193.268z"/>
			<path style="fill:none;stroke:#396958;stroke-width:1.0761;stroke-miterlimit:10;" d="M319.355,239.282
				c0,0,1.447,26.71,0.221,37.44"/>
			
				<path style="fill:none;stroke:#396958;stroke-width:1.0761;stroke-linecap:round;stroke-linejoin:round;stroke-miterlimit:10;" d="
				M377.633,235.684c1.037,6.224,11.065,34.924,11.065,34.924l-35.492,18.348c2.766-0.692,7.358,7.198,7.484,12.427
				c0,0,29.737-5.878,42.186-10.374"/>
		</g>
		<g>
			<polygon style="fill:#B48669;" points="272.668,309.378 267.58,309.378 283.045,457.342 288.132,457.342 			"/>
			<polygon style="fill:#9C745B;" points="428.935,309.378 423.847,309.378 439.311,457.342 444.399,457.342 			"/>
			<polygon style="fill:#B48669;" points="181.604,309.378 186.692,309.378 171.228,457.342 166.14,457.342 			"/>
			<rect x="221.205" y="303.566" style="fill:#9C745B;" width="231.065" height="7.695"/>
			<rect x="148.745" y="303.566" style="fill:#B48669;" width="113.234" height="7.695"/>
		</g>
	</g>
	
		<line style="fill:none;stroke:#E8D6CC;stroke-width:2.1208;stroke-miterlimit:10;" x1="29.989" y1="458.116" x2="486.823" y2="458.116"/>
	<g>
		<polygon style="fill:#F4F4F4;" points="189.866,301.046 254.465,301.065 262.481,247.729 200.034,247.71 		"/>
		<polygon style="opacity:0.8;fill:#FFFFFF;" points="189.866,301.046 207.453,301.051 234.993,247.714 217.991,247.708 		"/>
		<polygon style="opacity:0.8;fill:#FFFFFF;" points="212.795,301.046 222.671,301.051 250.21,247.714 240.92,247.708 		"/>
		<path style="fill:#B7ACAC;" d="M261.745,247.717l-11.512,53.341h4.204l8.802-51.983c0.12-0.71-0.427-1.358-1.147-1.358H261.745z"
			/>
		<path style="fill:#B7ACAC;" d="M165.384,299.897h87.806c1.031,0,1.866,0.835,1.866,1.866v0.09c0,1.031-0.835,1.866-1.866,1.866
			h-87.806c-1.031,0-1.866-0.835-1.866-1.866v-0.09C163.518,300.732,164.354,299.897,165.384,299.897z"/>
	</g>
	<g>
		<path style="fill:#EBB6A4;" d="M139.637,206.74c1.166-6.14,1.287-12.987,1.287-12.987l5.76,0.74l15.866,2.029
			c0.029,1.148-0.206,4.191-0.465,7.876c-0.116,1.637-0.238,3.411-0.35,5.196c-0.053,1.092,0.042,2.203-0.159,3.256
			c-0.376,1.948-0.27,2.274-0.628,3.949c-0.823,3.846,5.891,13.838,5.839,14.725c0,0-28.485-15.908-34.055-17.919
			C132.731,213.605,139.026,209.955,139.637,206.74z"/>
		<path style="fill:#EBB6A4;" d="M176.294,188.174c-1.915,1.073-2.838,2.615-2.78,3.281c0.048,0.654,0.237,7.955-0.195,9.317
			c-0.432,1.372-1.511,2.856-4.719,3.352c-0.423,0.057-0.836,0.104-1.237,0.152c-1.915,0.252-4.243,0.855-5.569,5.161
			c-0.013,0.052-0.036,0.104-0.059,0.156c-0.749,1.655-4.072-1.906-7.096-5.329c-1.896-2.126-3.678-4.206-4.649-4.939
			c-1.432-1.077-2.5-2.823-3.306-4.833c-2.314-5.71-2.452-13.504-2.452-13.504l2.938-12.189l16.58-6.026l7.997,1.922
			c0.422,0.237,1.42,4.349,1.42,4.349s0.836,7.989,0.852,9.99c0.017,1.99,0.688,3.942,1.587,5.198
			C176.493,185.499,178.209,187.102,176.294,188.174z"/>
		<path style="fill:#4E2100;" d="M158.82,188.924c1.398-1.222,1.547-4.213,1.238-5.865c-0.31-1.653-1.642-4.533,0.627-6.565
			c2.269-2.032-3.188-7.769-3.188-7.769s6.103-3.063,9.607-3.512c3.505-0.448,6.059,3.83,6.059,3.83s2.142-2.099,2.075-4.624
			c-0.076-2.858-3.337-6.176-13.273-7.69c-7.843-1.196-18.216-0.693-21.642,0.368c-5.891,1.824-8.397,4.637-7.25,10.33
			c0,0-3.143,1.589-4.821,5.118c-2.14,4.5-1.847,11.794,2.83,16.781c3.688,3.932,5.444,6.207,6.881,8.614
			c1.456,2.439,2.083,5.848,2.083,5.848s6.556,0.252,10.241-3.496c2.792-2.841,3.337-9.926,3.337-9.926l0.824-7.634L158.82,188.924z
			"/>
		<path style="fill:#E7B2A1;" d="M156.826,183.506c-2.473-2.757-6.453-2.103-5.981,1.94c0.392,3.37,1.963,3.986,4.479,6.706
			c1.708,1.845,3.191,0.891,3.264-0.053C158.795,189.428,158.363,185.218,156.826,183.506"/>
		<path style="fill:#D38576;" d="M157.292,189.505c0.259,0.698,0.419,1.205,0.676,1.723c0.214-0.23-0.2-0.81-0.449-2.027
			c-0.355-1.736,0.072-0.017-0.499-1.701c-0.57-1.684-1.018-2.705-2.25-3.242c-1.315-0.573-2.467,0.369-2.467,0.369
			C155.006,185.615,156.548,187.498,157.292,189.505"/>
		<path style="fill:#FFFFFF;" d="M173.664,192.555c0,0-2,0.111-3.102-0.339c0,0,0.505,3.035,3.064,2.644L173.664,192.555z"/>
		<path style="fill:#4E2100;" d="M170.924,173.546c0.677-0.29,1.419-0.466,2.08-0.134c0.315,0.158,0.272,1.171,0.272,1.171
			c-0.572-0.426-1.216-0.521-1.96-0.247c-0.848,0.313-1.316,0.904-1.316,0.904C169.916,174.504,170.246,173.837,170.924,173.546z"/>
		<path style="fill:#4E2100;" d="M171.986,178.811c0.069,0.925,0.458,1.65,0.868,1.619c0.41-0.031,0.687-0.805,0.617-1.73
			c-0.069-0.925-0.458-1.65-0.868-1.62C172.193,177.111,171.916,177.885,171.986,178.811z"/>
		<path style="fill:#D38576;" d="M161.793,209.437c-0.013,0.052-0.036,0.104-0.059,0.156c-0.014,0.279-0.026,0.554-0.04,0.833
			c-0.142-0.414-0.282-0.836-0.42-1.274c-0.854-2.723-2.5-4.66-3.612-7.216c-0.641-1.474-0.883-3.058-1.024-4.66
			c1.007,2.229,2.311,3.917,5.253,5.175c1.432,0.612,3.855,1.68,5.471,1.826C165.439,204.103,163.119,205.132,161.793,209.437z"/>
		<g>
			<g>
				<path style="fill:#272C34;" d="M141.046,406.709l-9.839,4.768l-16.292,21.985l18.354,23.643h18.354c0,0-0.493-4.537-2.671-6.093
					c-2.178-1.555-7.906-5.418-7.906-5.418l-1.971-8.61l13.632-20.744L141.046,406.709z"/>
			</g>
			<path style="fill:#272C34;" d="M173.248,419.904l-8.678,10.124c0,0-4.049,13.595-4.049,14.752s-1.736,8.099-1.446,9.835
				c0.289,1.736,0,3.76,1.735,3.76c1.736,0,40.206-1.736,40.206-1.736s0.289-4.339-5.785-6.942
				c-4.643-1.99-12.149-6.942-12.727-7.81c-0.579-0.868,3.182-21.694,3.182-21.694L173.248,419.904z"/>
			<path style="fill:#4E514E;" d="M159.528,362.344l-28.321,49.134c0,0,4.393,15.133,21.479,16.109c0,0,27.824-36.711,36.611-45.986
				c8.787-9.275,6.346-22.943,6.346-22.943L159.528,362.344z"/>
			<path style="fill:#4E514E;" d="M107.116,329.303c11.752-2.137,34.943-13.461,36.546-15.064c1.602-1.603,42.43,2.581,53.344,5.631
				c13.033,3.642,18.549,8.365,19.617,16.377c1.068,8.013-8.547,40.598-14.423,58.225c-5.876,17.628-11.886,35.266-11.886,35.266
				s-14.173,7.231-25.743,0.289c0,0,9.318-57.456,10.387-65.469c0,0-20.299,2.137-38.995-2.671
				C117.266,357.081,107.116,329.303,107.116,329.303z"/>
			<path style="fill:#CF9636;" d="M131.946,215.984c0.787-1.968,1.968-8.265,9.052-9.052c7.085-0.787,18.892,1.181,20.86,2.755
				c1.968,1.574,2.362,15.743,2.362,15.743L131.946,215.984z"/>
			<path style="fill:#EBAB3E;" d="M107.016,333.621c19.981-1.959,46.785-19.561,46.785-19.561s2.409-7.725,5.867-18.102
				c3.459-10.377,6.534-17.295,8.839-26.903c2.306-9.608,8.071-39.585,6.918-44.197c-1.153-4.612-5.381-7.686-10.377-9.608
				s-28.056-4.996-40.354-2.69c-12.298,2.306-17.295,21.522-22.675,33.052c-5.381,11.53-16.142,64.182-16.91,71.868
				C84.341,325.166,87.416,335.542,107.016,333.621z"/>
			
				<line style="fill:none;stroke:#444644;stroke-width:1.5251;stroke-miterlimit:10;" x1="164.57" y1="430.028" x2="174.957" y2="364.559"/>
			<g>
				<g>
					<rect x="125.046" y="368.604" style="fill:#6C273E;" width="6.544" height="70.017"/>
					<path style="fill:#6C273E;" d="M128.839,414.958h-1.042c-2.617,0-4.739,2.122-4.739,4.739v21.287
						c0,1.244,1.008,2.252,2.253,2.252h6.015c1.244,0,2.252-1.008,2.252-2.252v-21.287
						C133.578,417.08,131.456,414.958,128.839,414.958z"/>
					<g>
						<path style="fill:#6C273E;" d="M128.318,440.862L128.318,440.862c-0.769,0-1.392,0.623-1.392,1.392v8.984
							c0,0.769,0.623,1.392,1.392,1.392l0,0c0.768,0,1.392-0.623,1.392-1.392v-8.984
							C129.709,441.485,129.086,440.862,128.318,440.862z"/>
					</g>
					<path style="fill:#6C273E;" d="M137.009,375.541h-17.383c-2.407,0-4.582-1.438-5.524-3.653l-2.327-5.471
						c-1.684-3.959,1.221-8.352,5.524-8.352h22.037c4.303,0,7.208,4.393,5.524,8.352l-2.327,5.471
						C141.591,374.103,139.416,375.541,137.009,375.541z"/>
					<path style="fill:#6C273E;" d="M161.005,454.008c0,2.599-2.107,4.706-4.706,4.706c-2.599,0-4.706-2.107-4.706-4.706
						c0-2.599,2.107-4.706,4.706-4.706C158.898,449.302,161.005,451.409,161.005,454.008z"/>
					<path style="fill:#6C273E;" d="M133.024,454.008c0,2.599-2.107,4.706-4.706,4.706c-2.599,0-4.706-2.107-4.706-4.706
						c0-2.599,2.107-4.706,4.706-4.706C130.917,449.302,133.024,451.409,133.024,454.008z"/>
					<path style="fill:#6C273E;" d="M95.631,454.008c0,2.599,2.107,4.706,4.706,4.706c2.599,0,4.706-2.107,4.706-4.706
						c0-2.599-2.107-4.706-4.706-4.706C97.738,449.302,95.631,451.409,95.631,454.008z"/>
					<g>
						<path style="fill:#6C273E;" d="M102.127,455.991l-2.78-1.257c5.109-11.299,16.196-18.316,28.935-18.316
							c0.002,0,0.003,0,0.005,0c12.735,0.001,23.817,7.02,28.922,18.316l-2.78,1.257c-4.605-10.19-14.622-16.522-26.143-16.524
							c-0.001,0-0.003,0-0.004,0C116.757,439.467,106.736,445.799,102.127,455.991z"/>
					</g>
				</g>
			</g>
			<g>
				<path style="fill:#5C2135;" d="M150.718,355.448c-21.613,4.689-27.646-21.932-29.638-53.135
					c-0.765-11.99-1.275-25.255-0.674-43.812c0.547-16.874-9.661-29.12-28.407-28.07c0,0,13.9,44.244,16.02,68.091
					c2.12,23.847-2.375,42.263,10.599,56.173C131.59,368.604,150.718,355.448,150.718,355.448z"/>
				<path style="fill:#6C273E;" d="M141.026,352.678c-16.163-2.02-24.676-35.176-27.334-59.984
					c-1.245-11.623-5.233-35.793-5.681-44.044c-0.451-8.327-2.865-17.889-17.462-18.36c-15.404-0.497-32.842,0.475-39.951,0.487
					c-13.545,0.023-14.392,8.103-11.852,14.415c5.785,14.379,3.077,72.915,13.709,95.952c10.632,23.036,25.689,28.352,67.332,28.352
					c41.642,0,63.09-1.732,68.024-4.534c5.347-3.036,9.671-11.762,1.946-12.284C184.38,352.314,148.114,353.564,141.026,352.678z"/>
			</g>
		</g>
		<path style="fill:#EBB6A4;" d="M188.795,293.447c-3.264-0.87-5.113-0.653-5.984,1.088c-0.87,1.741-2.393,3.59-2.393,4.461
			c0,0.87,2.611,0.87,3.373,0.653c0.762-0.218,1.958,0.544,3.046,0.326c1.088-0.218,5.331-0.544,5.331-0.544L188.795,293.447z"/>
		<path style="fill:#EBAB3E;" d="M153.494,231.133c0.915-8.697,12.879-15.884,12.879-15.884s9.714,2.749,15.494,11.681
			c5.78,8.932,16.288,32.576,21.017,42.559c4.729,9.983,7.264,17.21,8.315,21.938c1.051,4.729,0.092,13.265-14.094,12.214
			c-14.186-1.051-23.118-25.745-32.05-37.83C156.121,253.726,152.443,241.116,153.494,231.133z"/>
		<path style="fill:none;stroke:#CF9636;stroke-width:1.4089;stroke-miterlimit:10;" d="M173.118,278.581
			c0,0-10.666-19.669-13.487-29.074"/>
	</g>
</g>
</svg>
