<svg width="256" height="261" viewBox="0 0 256 261" fill="none" xmlns="http://www.w3.org/2000/svg">
<path fill-rule="evenodd" clip-rule="evenodd" d="M188.444 220.444C192.372 220.444 195.556 223.628 195.556 227.556C195.556 231.483 192.372 234.667 188.444 234.667H124.444C124.026 234.667 123.617 234.631 123.219 234.561C100.375 233.554 79.3983 225.361 62.4929 212.188C61.118 211.117 59.046 209.341 57.5103 208.005C56.1969 206.862 54.5183 206.222 52.7773 206.222H35.5555C31.6282 206.222 28.4444 203.038 28.4444 199.111C28.4444 195.184 31.6282 192 35.5555 192H42.6667C46.594 192 49.7778 188.816 49.7778 184.889C49.7778 180.962 46.594 177.778 42.6667 177.778H24.8889C20.9615 177.778 17.7778 174.594 17.7778 170.667C17.7778 166.739 20.9615 163.556 24.8889 163.556H28.4444C32.3718 163.556 35.5555 160.372 35.5555 156.444C35.5555 152.517 32.3718 149.333 28.4444 149.333C25.569 149.333 23.1097 147.261 22.6313 144.425C22.4575 143.395 22.3194 142.566 22.2966 142.397C21.6614 137.689 21.3333 132.883 21.3333 128C21.3333 69.0896 69.0896 21.3333 128 21.3333C145.778 21.3333 163.556 21.3333 181.333 21.3333C185.261 21.3333 188.444 24.5171 188.444 28.4444C188.444 32.3718 185.261 35.5556 181.333 35.5556H170.667C166.739 35.5556 163.556 38.7393 163.556 42.6667C163.556 46.594 166.739 49.7778 170.667 49.7778H213.333C217.261 49.7778 220.444 52.9615 220.444 56.8889C220.444 60.8136 217.265 63.9958 213.341 64L202.667 64C198.739 64 195.556 67.1837 195.556 71.1111C195.556 75.0385 198.739 78.2222 202.667 78.2222H217.977C220.666 78.2222 223.131 79.7364 224.297 82.1598C224.998 83.6164 225.735 85.1875 226.217 86.323C231.657 99.1264 234.667 113.212 234.667 128C234.667 132.647 234.37 137.224 233.793 141.713C233.696 142.468 233.548 143.437 233.386 144.429C232.922 147.276 230.439 149.333 227.556 149.333C223.628 149.333 220.444 152.517 220.444 156.444C220.444 160.372 223.628 163.556 227.556 163.556H231.111C235.038 163.556 238.222 166.739 238.222 170.667C238.222 174.594 235.038 177.778 231.111 177.778H226.546C223.965 177.778 221.591 179.179 220.301 181.416C219.463 182.868 218.532 184.448 217.84 185.527C216.218 188.055 214.493 190.509 212.669 192.885C210.838 195.271 208.908 197.578 206.885 199.799C205.775 201.018 203.977 202.823 202.574 204.21C201.262 205.507 199.488 206.222 197.643 206.222H177.778C173.85 206.222 170.667 209.406 170.667 213.333C170.667 217.233 173.806 220.4 177.696 220.444L188.444 220.444Z" fill="url(#paint0_linear_503_14941)"/>
<g opacity="0.1">
<circle cx="128" cy="128" r="78.2222" fill="#50C22B" style="mix-blend-mode:multiply"/>
</g>
<g filter="url(#filter0_d_503_14941)">
<path fill-rule="evenodd" clip-rule="evenodd" d="M99.5555 128H156.444V242.974C156.444 245.655 153.589 247.372 151.221 246.114L128 233.778L104.779 246.114C102.411 247.372 99.5555 245.655 99.5555 242.974V128Z" fill="#265388"/>
</g>
<circle opacity="0.2" cx="128" cy="135.111" r="71.1111" fill="#62CF3F" style="mix-blend-mode:multiply"/>
<circle cx="128" cy="128" r="71.1111" fill="url(#paint1_linear_503_14941)"/>
<mask id="mask0_503_14941" style="mask-type:luminance" maskUnits="userSpaceOnUse" x="56" y="56" width="144" height="144">
<circle cx="128" cy="128" r="71.1111" fill="white"/>
</mask>
<g mask="url(#mask0_503_14941)">
<path d="M58.6667 128C58.6667 166.292 89.7083 197.333 128 197.333C166.292 197.333 197.333 166.292 197.333 128" stroke="#64788F" stroke-width="3.55556"/>
<g opacity="0.12" style="mix-blend-mode:multiply">
<path d="M174.222 141.343L216.009 99.5555" stroke="#78A2A9" stroke-width="7.11111" stroke-linecap="round"/>
</g>
<g opacity="0.12" style="mix-blend-mode:multiply">
<path d="M156.444 102.232L198.232 60.4444" stroke="#78A2A9" stroke-width="7.11111" stroke-linecap="round"/>
</g>
<g opacity="0.12" style="mix-blend-mode:multiply">
<path d="M24.8889 169.787L66.6761 128" stroke="#78A2A9" stroke-width="7.11111" stroke-linecap="round"/>
</g>
<g opacity="0.12" style="mix-blend-mode:multiply">
<path d="M181.333 91.565L223.121 49.7778" stroke="#78A2A9" stroke-width="7.11111" stroke-linecap="round"/>
</g>
<g opacity="0.12" style="mix-blend-mode:multiply">
<path d="M49.7778 159.121L91.565 117.333" stroke="#78A2A9" stroke-width="7.11111" stroke-linecap="round"/>
</g>
<g opacity="0.12" style="mix-blend-mode:multiply">
<path d="M110.222 201.787L152.009 160" stroke="#78A2A9" stroke-width="7.11111" stroke-linecap="round"/>
</g>
<g opacity="0.12" style="mix-blend-mode:multiply">
<path d="M167.111 176.898L208.898 135.111" stroke="#78A2A9" stroke-width="7.11111" stroke-linecap="round"/>
</g>
<path d="M177.026 177.026C189.573 164.479 197.333 147.146 197.333 128C197.333 89.7083 166.292 58.6667 128 58.6667C89.7083 58.6667 58.6667 89.7083 58.6667 128C58.6667 147.146 66.4271 164.479 78.974 177.026" stroke="#8B99AF" stroke-width="3.55556" stroke-linecap="round"/>
<path opacity="0.4" d="M197.333 128C197.333 89.7083 166.292 58.6667 128 58.6667C89.7083 58.6667 58.6667 89.7083 58.6667 128" stroke="#CCD8EA" stroke-width="3.55556" stroke-linecap="round"/>
<path opacity="0.2" d="M128 58.6667C114.993 58.6667 102.823 62.2483 92.4212 68.4792" stroke="white" stroke-width="3.55556" stroke-linecap="round"/>
<path opacity="0.6" d="M115.606 59.7713C112.304 60.3671 109.083 61.1968 105.962 62.2425" stroke="white" stroke-width="3.55556" stroke-linecap="round"/>
</g>
<g filter="url(#filter1_d_503_14941)">
<circle cx="128" cy="128" r="53.3333" fill="url(#paint2_linear_503_14941)"/>
<circle cx="128" cy="128" r="55.1111" stroke="#64788F" stroke-opacity="0.06" stroke-width="3.55556"/>
</g>
<mask id="mask1_503_14941" style="mask-type:luminance" maskUnits="userSpaceOnUse" x="74" y="74" width="108" height="108">
<circle cx="128" cy="128" r="53.3333" fill="white"/>
</mask>
<g mask="url(#mask1_503_14941)">
<g opacity="0.12" style="mix-blend-mode:multiply">
<path d="M156.444 95.1206L198.232 53.3333" stroke="#78A2A9" stroke-width="7.11111" stroke-linecap="round"/>
</g>
<g opacity="0.12" style="mix-blend-mode:multiply">
<path d="M181.333 84.4539L223.121 42.6667" stroke="#78A2A9" stroke-width="7.11111" stroke-linecap="round"/>
</g>
<g opacity="0.12" style="mix-blend-mode:multiply">
<path d="M49.7778 152.009L91.565 110.222" stroke="#78A2A9" stroke-width="7.11111" stroke-linecap="round"/>
</g>
<g opacity="0.12" style="mix-blend-mode:multiply">
<path d="M110.222 194.676L152.009 152.889" stroke="#78A2A9" stroke-width="7.11111" stroke-linecap="round"/>
</g>
<g opacity="0.12" style="mix-blend-mode:multiply">
<path d="M174.222 134.232L216.009 92.4444" stroke="#78A2A9" stroke-width="7.11111" stroke-linecap="round"/>
</g>
<path opacity="0.6" d="M128 76.4444C121.01 76.4444 114.345 77.8356 108.266 80.3561" stroke="white" stroke-width="3.55556" stroke-linecap="round"/>
</g>
<g filter="url(#filter2_d_503_14941)">
<path d="M107.615 128L128 101.791L148.384 128L128 154.209L107.615 128Z" fill="white"/>
<path d="M128 98.2357C129.097 98.2358 130.133 98.7427 130.807 99.6087L151.191 125.817C152.189 127.101 152.189 128.899 151.191 130.183L130.807 156.392C130.133 157.258 129.097 157.764 128 157.764C126.903 157.764 125.867 157.258 125.194 156.392L104.809 130.183C103.81 128.899 103.81 127.101 104.809 125.817L125.194 99.6087L125.323 99.4505C125.996 98.6811 126.971 98.2357 128 98.2357Z" stroke="white" stroke-width="7.11111" stroke-linejoin="round"/>
</g>
<g filter="url(#filter3_i_503_14941)">
<path d="M107.615 128L128 101.791L148.384 128L128 154.209L107.615 128Z" fill="url(#paint3_linear_503_14941)"/>
</g>
<defs>
<filter id="filter0_d_503_14941" x="92.4444" y="128" width="71.1111" height="132.757" filterUnits="userSpaceOnUse" color-interpolation-filters="sRGB">
<feFlood flood-opacity="0" result="BackgroundImageFix"/>
<feColorMatrix in="SourceAlpha" type="matrix" values="0 0 0 0 0 0 0 0 0 0 0 0 0 0 0 0 0 0 127 0" result="hardAlpha"/>
<feOffset dy="7.11111"/>
<feGaussianBlur stdDeviation="3.55556"/>
<feColorMatrix type="matrix" values="0 0 0 0 0.603922 0 0 0 0 0.713726 0 0 0 0 0.356863 0 0 0 0.2 0"/>
<feBlend mode="darken" in2="BackgroundImageFix" result="effect1_dropShadow_503_14941"/>
<feBlend mode="normal" in="SourceGraphic" in2="effect1_dropShadow_503_14941" result="shape"/>
</filter>
<filter id="filter1_d_503_14941" x="56.8889" y="60.4444" width="142.222" height="142.222" filterUnits="userSpaceOnUse" color-interpolation-filters="sRGB">
<feFlood flood-opacity="0" result="BackgroundImageFix"/>
<feColorMatrix in="SourceAlpha" type="matrix" values="0 0 0 0 0 0 0 0 0 0 0 0 0 0 0 0 0 0 127 0" result="hardAlpha"/>
<feOffset dy="3.55556"/>
<feGaussianBlur stdDeviation="7.11111"/>
<feColorMatrix type="matrix" values="0 0 0 0 0.279884 0 0 0 0 0.409586 0 0 0 0 0.470833 0 0 0 0.2 0"/>
<feBlend mode="normal" in2="BackgroundImageFix" result="effect1_dropShadow_503_14941"/>
<feBlend mode="normal" in="SourceGraphic" in2="effect1_dropShadow_503_14941" result="shape"/>
</filter>
<filter id="filter2_d_503_14941" x="93.3933" y="91.1247" width="69.2134" height="80.8617" filterUnits="userSpaceOnUse" color-interpolation-filters="sRGB">
<feFlood flood-opacity="0" result="BackgroundImageFix"/>
<feColorMatrix in="SourceAlpha" type="matrix" values="0 0 0 0 0 0 0 0 0 0 0 0 0 0 0 0 0 0 127 0" result="hardAlpha"/>
<feOffset dy="3.55556"/>
<feGaussianBlur stdDeviation="3.55556"/>
<feColorMatrix type="matrix" values="0 0 0 0 0.19669 0 0 0 0 0.27695 0 0 0 0 0.483333 0 0 0 0.2 0"/>
<feBlend mode="normal" in2="BackgroundImageFix" result="effect1_dropShadow_503_14941"/>
<feBlend mode="normal" in="SourceGraphic" in2="effect1_dropShadow_503_14941" result="shape"/>
</filter>
<filter id="filter3_i_503_14941" x="107.615" y="101.791" width="40.769" height="55.9728" filterUnits="userSpaceOnUse" color-interpolation-filters="sRGB">
<feFlood flood-opacity="0" result="BackgroundImageFix"/>
<feBlend mode="normal" in="SourceGraphic" in2="BackgroundImageFix" result="shape"/>
<feColorMatrix in="SourceAlpha" type="matrix" values="0 0 0 0 0 0 0 0 0 0 0 0 0 0 0 0 0 0 127 0" result="hardAlpha"/>
<feOffset dy="3.55556"/>
<feGaussianBlur stdDeviation="1.77778"/>
<feComposite in2="hardAlpha" operator="arithmetic" k2="-1" k3="1"/>
<feColorMatrix type="matrix" values="0 0 0 0 0.324977 0 0 0 0 0.428027 0 0 0 0 0.579167 0 0 0 0.4 0"/>
<feBlend mode="normal" in2="shape" result="effect1_innerShadow_503_14941"/>
</filter>
<linearGradient id="paint0_linear_503_14941" x1="17.7778" y1="21.3333" x2="17.7778" y2="234.667" gradientUnits="userSpaceOnUse">
<stop stop-color="#D9E242"/>
<stop offset="1" stop-color="#84C400"/>
</linearGradient>
<linearGradient id="paint1_linear_503_14941" x1="56.8889" y1="56.8889" x2="56.8889" y2="199.111" gradientUnits="userSpaceOnUse">
<stop stop-color="#ABB7CC"/>
<stop offset="1" stop-color="#76879C"/>
</linearGradient>
<linearGradient id="paint2_linear_503_14941" x1="74.6667" y1="74.6667" x2="74.6667" y2="181.333" gradientUnits="userSpaceOnUse">
<stop stop-color="#C6D1E4"/>
<stop offset="1" stop-color="#A4B1C4"/>
</linearGradient>
<linearGradient id="paint3_linear_503_14941" x1="107.615" y1="101.791" x2="107.615" y2="154.209" gradientUnits="userSpaceOnUse">
<stop stop-color="#A3B0C5"/>
<stop offset="1" stop-color="#7A8AA1"/>
</linearGradient>
</defs>
</svg>
